<svg width="316" height="110" viewBox="0 0 316 110" fill="none" xmlns="http://www.w3.org/2000/svg">
<path d="M86.8295 64.4047C83.503 77.9304 54.3939 82.1419 46.7718 83.3652C34.531 85.3137 25.9223 87.8301 14.441 97.4152C3.68447 106.432 0.35797 109.097 0 109.359L54.0709 54.8632C61.7542 47.1742 68.7215 40.2016 71.5416 37.2221C79.478 28.8165 64.2599 30.6077 56.6815 32.0931C48.4307 33.7358 33.2213 36.558 28.2971 44.5529C24.9182 50.0401 36.0327 57.8864 52.0715 55.4224C50.0721 55.7894 39.7259 57.5282 32.1387 55.6846C26.2977 54.304 22.814 49.4285 23.9403 44.9636C27.2756 31.4291 56.3759 27.2263 63.998 25.9943C76.2388 24.0458 84.8476 21.5381 96.3288 11.9443C107.085 2.91835 110.412 0.25339 110.77 0L56.7251 54.4526C49.0419 62.1416 42.0484 69.1667 39.2283 72.1374C31.2918 80.543 46.5099 78.7518 54.0884 77.2664C62.3391 75.6237 77.5485 72.8102 82.4727 64.8066C85.8516 59.3194 74.7371 51.4731 58.707 53.937C60.7064 53.5788 71.0526 51.8313 78.6311 53.6837C84.4721 55.0642 87.9558 59.931 86.8295 64.4047Z" fill="#081428"/>
<path d="M113.616 80.0799C110.595 80.0799 107.801 79.5206 105.234 78.3935C102.659 77.2751 100.432 75.7285 98.5377 73.7538C96.6431 71.7791 95.1676 69.4812 94.1024 66.8424C93.0372 64.2037 92.5046 61.364 92.5046 58.3058C92.5046 55.2477 93.0372 52.4167 94.1024 49.8041C95.1676 47.1916 96.6431 44.9024 98.5377 42.9277C100.432 40.953 102.667 39.4152 105.234 38.3142C107.801 37.2133 110.595 36.6628 113.616 36.6628C116.637 36.6628 119.413 37.2133 121.972 38.3142C124.521 39.4152 126.756 40.953 128.668 42.9277C130.58 44.9024 132.065 47.1916 133.104 49.8041C134.143 52.4167 134.666 55.2564 134.666 58.3058C134.666 61.3552 134.143 64.2037 133.104 66.8424C132.065 69.4812 130.58 71.7791 128.668 73.7538C126.756 75.7285 124.521 77.2751 121.972 78.3935C119.422 79.5119 116.637 80.0799 113.616 80.0799ZM113.616 75.379C115.939 75.379 118.051 74.9334 119.964 74.0422C121.876 73.151 123.526 71.9364 124.923 70.3899C126.311 68.8433 127.376 67.0346 128.11 64.9638C128.843 62.893 129.21 60.6824 129.21 58.3146C129.21 55.9467 128.843 53.736 128.11 51.6652C127.376 49.5944 126.311 47.7945 124.923 46.2654C123.526 44.7364 121.876 43.5393 119.964 42.6656C118.051 41.7918 115.93 41.3637 113.616 41.3637C111.302 41.3637 109.12 41.8005 107.208 42.6656C105.296 43.5393 103.654 44.7364 102.275 46.2654C100.904 47.7945 99.8387 49.5944 99.0878 51.6652C98.3369 53.736 97.9615 55.9554 97.9615 58.3146C97.9615 60.6737 98.3369 62.893 99.0878 64.9638C99.8387 67.0346 100.904 68.8433 102.275 70.3899C103.645 71.9364 105.287 73.1597 107.208 74.0422C109.12 74.9334 111.259 75.379 113.616 75.379Z" fill="#081428"/>
<path d="M163.042 79.2148H138.622V37.5366H143.904V74.514H163.042V79.2148Z" fill="#081428"/>
<path d="M171.799 79.2148H166.517V37.5366H171.799V79.2148Z" fill="#081428"/>
<path d="M193.662 79.2148H188.388V42.2374H174.584V37.5366H207.413V42.2374H193.662V79.2148Z" fill="#081428"/>
<path d="M235.483 79.2148L222.029 43.2248L208.452 79.2148H203.231L219.296 37.5366H225.093L241.045 79.2148H235.474H235.483ZM212.346 63.9416H232.122L233.571 68.1793H210.425L212.337 63.9416H212.346Z" fill="#081428"/>
<path d="M249.461 79.2148H244.179V37.5366H249.461V79.2148Z" fill="#081428"/>
<path d="M261.065 79.2148H255.782V37.5366H270.922C275.523 37.5366 279.138 38.6463 281.766 40.8744C284.394 43.1025 285.712 46.248 285.712 50.311C285.712 53.3691 284.787 55.9904 282.927 58.1748C281.067 60.3592 278.518 61.7659 275.27 62.3863L286.812 79.2236H280.543L269.7 63.0853H261.056V79.2236L261.065 79.2148ZM261.065 41.9491V58.6641H270.52C273.611 58.6641 276.03 57.9563 277.767 56.5496C279.505 55.1428 280.378 53.0546 280.378 50.311C280.378 47.5674 279.505 45.5315 277.767 44.0985C276.03 42.6656 273.611 41.9491 270.52 41.9491H261.065Z" fill="#081428"/>
<path d="M315.991 74.6276V79.2148H290.41V37.5366H315.581V42.1238H295.683V55.4137H313.896V60.0009H295.683V74.6276H315.983H315.991Z" fill="#081428"/>
<path d="M243.061 109.167L238.792 98.7957V109.167H236.697V95.222H239.508L244.048 106.354L248.588 95.222H251.4V109.167H249.287V98.752L245 109.167H243.061Z" fill="#081428"/>
<path d="M261.405 109.167V107.629C261.082 108.189 260.646 108.617 260.095 108.914C259.545 109.211 258.891 109.359 258.148 109.359C257.075 109.359 256.21 109.071 255.564 108.503C254.918 107.935 254.595 107.175 254.595 106.231C254.595 105.218 254.997 104.458 255.791 103.933C256.586 103.409 257.747 103.147 259.275 103.147C259.572 103.147 259.86 103.156 260.148 103.173C260.436 103.191 260.768 103.226 261.161 103.261V102.544C261.161 101.845 260.977 101.303 260.611 100.91C260.244 100.526 259.729 100.325 259.065 100.325C258.402 100.325 257.852 100.517 257.441 100.91C257.031 101.303 256.813 101.845 256.786 102.544H254.866C254.901 101.758 255.101 101.067 255.459 100.482C255.817 99.8966 256.306 99.451 256.926 99.1364C257.546 98.8219 258.262 98.6646 259.083 98.6646C260.366 98.6646 261.361 99.0141 262.077 99.7044C262.793 100.395 263.151 101.356 263.151 102.588V109.176H261.405V109.167ZM256.594 106.179C256.594 106.686 256.769 107.096 257.127 107.402C257.485 107.717 257.956 107.865 258.55 107.865C259.353 107.865 259.991 107.638 260.453 107.192C260.916 106.747 261.152 106.144 261.152 105.375V104.58C260.785 104.528 260.471 104.493 260.192 104.484C259.912 104.475 259.641 104.466 259.388 104.466C258.454 104.466 257.756 104.606 257.293 104.886C256.83 105.165 256.594 105.594 256.594 106.179Z" fill="#081428"/>
<path d="M268.783 103.942V109.167H266.67V98.8481H268.634V100.989C269.001 100.299 269.542 99.7481 270.267 99.3374C270.992 98.9267 271.778 98.717 272.616 98.717V100.91C271.882 100.875 271.219 100.945 270.643 101.146C270.066 101.338 269.612 101.662 269.28 102.116C268.949 102.57 268.783 103.182 268.783 103.942Z" fill="#081428"/>
<path d="M277.208 109.167H275.095V95.222H277.208V103.418L281.495 98.8481H283.94L279.277 103.837L284.42 109.158H281.705L277.2 104.3V109.158L277.208 109.167Z" fill="#081428"/>
<path d="M290.523 109.368C289.528 109.368 288.655 109.141 287.904 108.687C287.153 108.232 286.568 107.594 286.149 106.782C285.73 105.969 285.52 105.017 285.52 103.942C285.52 102.929 285.73 102.029 286.158 101.233C286.585 100.438 287.17 99.8092 287.921 99.3461C288.672 98.883 289.519 98.6558 290.462 98.6558C291.248 98.6558 291.955 98.8044 292.583 99.0927C293.212 99.381 293.745 99.7917 294.173 100.325C294.609 100.858 294.923 101.478 295.115 102.203C295.308 102.92 295.36 103.697 295.273 104.527H286.734V103.147H293.02C292.994 102.238 292.741 101.53 292.269 101.006C291.798 100.482 291.178 100.229 290.418 100.229C289.851 100.229 289.353 100.377 288.943 100.674C288.532 100.971 288.209 101.399 287.982 101.95C287.755 102.5 287.642 103.164 287.642 103.942C287.642 104.72 287.755 105.41 287.974 105.969C288.192 106.537 288.515 106.965 288.943 107.262C289.371 107.559 289.877 107.708 290.479 107.708C291.178 107.708 291.763 107.533 292.234 107.175C292.706 106.817 293.02 106.319 293.177 105.672H295.273C295.002 106.825 294.443 107.725 293.614 108.381C292.784 109.036 291.745 109.359 290.514 109.359L290.523 109.368Z" fill="#081428"/>
<path d="M304.135 107.114V108.975C303.838 109.115 303.541 109.22 303.253 109.272C302.965 109.333 302.65 109.359 302.31 109.359C301.664 109.359 301.096 109.237 300.599 109.001C300.101 108.765 299.725 108.39 299.455 107.892C299.184 107.393 299.044 106.764 299.044 105.995V100.657H296.809V98.8481H299.044V95.7987H301.14V98.8481H304.231V100.657H301.14V105.532C301.14 106.223 301.288 106.703 301.594 106.983C301.899 107.262 302.31 107.402 302.825 107.402C303.069 107.402 303.296 107.376 303.515 107.332C303.724 107.289 303.934 107.21 304.126 107.105L304.135 107.114Z" fill="#081428"/>
<path d="M315.24 106.039C315.24 107.061 314.865 107.874 314.105 108.468C313.346 109.062 312.281 109.359 310.892 109.359C309.504 109.359 308.421 109.036 307.627 108.398C306.841 107.76 306.396 106.887 306.309 105.786H308.325C308.352 106.397 308.596 106.878 309.076 107.245C309.548 107.612 310.159 107.787 310.91 107.787C311.573 107.787 312.106 107.673 312.508 107.437C312.918 107.201 313.119 106.852 313.119 106.389C313.119 105.987 312.979 105.681 312.708 105.48C312.438 105.27 311.992 105.113 311.39 104.991L309.679 104.676C308.736 104.493 308.002 104.161 307.487 103.663C306.972 103.173 306.71 102.535 306.71 101.758C306.71 101.146 306.876 100.613 307.208 100.141C307.54 99.6695 308.002 99.3112 308.605 99.0403C309.207 98.7695 309.914 98.6384 310.726 98.6384C311.538 98.6384 312.289 98.7782 312.918 99.0578C313.555 99.3374 314.053 99.7393 314.428 100.264C314.804 100.788 315.013 101.408 315.066 102.116H313.049C312.997 101.522 312.761 101.05 312.35 100.718C311.94 100.377 311.39 100.211 310.718 100.211C310.124 100.211 309.644 100.334 309.277 100.569C308.91 100.805 308.736 101.137 308.736 101.548C308.736 101.959 308.867 102.247 309.137 102.448C309.399 102.649 309.836 102.806 310.43 102.92L312.211 103.252C313.232 103.444 313.992 103.767 314.481 104.222C314.97 104.676 315.214 105.27 315.214 106.013L315.24 106.039Z" fill="#081428"/>
</svg>
