<?xml version="1.0" encoding="UTF-8" standalone="no"?><!DOCTYPE svg PUBLIC "-//W3C//DTD SVG 1.1//EN" "http://www.w3.org/Graphics/SVG/1.1/DTD/svg11.dtd"><svg width="100%" height="100%" viewBox="0 0 1200 231" version="1.1" xmlns="http://www.w3.org/2000/svg" xmlns:xlink="http://www.w3.org/1999/xlink" xml:space="preserve" xmlns:serif="http://www.serif.com/" style="fill-rule:evenodd;clip-rule:evenodd;stroke-linejoin:round;stroke-miterlimit:2;"><g><path d="M174.942,118.213c24.308,30.375 40.842,85.933 2.279,86.158c-39.596,0.246 -93.117,-50.567 -94.779,-52.154c42.054,36.992 101.279,62.463 108.779,32.188c2.946,-11.9 -5.4,-32.992 -18.425,-49.742c-9.746,-12.521 -22.35,-22.358 -32.683,-25.35c-9.242,-2.662 -17.879,1.117 -24.188,7.429c-21.204,21.204 -103.283,101.8 -114.725,113.025l-0.517,0.508c-0.121,0.121 -0.225,0.225 -0.321,0.308c-0.046,0.046 -0.083,0.083 -0.121,0.121l-0.196,0.2c-0.008,0.008 -0.008,0.017 -0.021,0.017l-0.025,0.021c2.425,-2.654 41.629,-45.517 59.258,-64.3c18.196,-19.396 14.146,-32.279 -2.992,-53.671c-24.308,-30.379 -40.833,-85.933 -2.279,-86.158c39.596,-0.246 93.129,50.575 94.788,52.162c-42.063,-37 -101.283,-62.471 -108.787,-32.196c-2.946,11.9 5.4,32.992 18.429,49.742c9.754,12.521 22.358,22.358 32.692,25.35c9.229,2.662 17.875,-1.117 24.179,-7.429c21.558,-21.558 106.021,-104.746 115.2,-113.779l0.396,-0.383l0.263,-0.263l0.029,-0.017c-2.429,2.671 -41.596,45.754 -59.217,64.542c-18.204,19.392 -14.142,32.279 2.983,53.671" style="fill:#101010;fill-rule:nonzero;"/><path d="M328.658,57.734c21.304,0 35.042,11.888 36.279,31.183l-15.283,0c-0.775,-11.112 -8.646,-17.6 -21.15,-17.6c-14.05,0 -23.158,7.104 -23.158,18.062c0,8.954 5.096,14.358 15.592,16.829l18.371,4.321c18.217,4.167 27.479,14.046 27.479,29.792c0,20.071 -15.592,32.883 -39.363,32.883c-22.696,0 -37.825,-11.888 -38.75,-31.029l15.438,0c0.308,10.65 9.262,17.446 23.312,17.446c14.817,0 24.233,-6.95 24.233,-18.062c0,-8.8 -4.783,-14.358 -15.438,-16.825l-18.371,-4.171c-18.212,-4.167 -27.633,-14.667 -27.633,-30.721c0,-19.142 15.442,-32.108 38.442,-32.108" style="fill:#101010;fill-rule:nonzero;"/><path d="M406.158,160.238c14.512,0 24.7,-10.963 24.7,-26.708c0,-15.746 -10.188,-26.704 -24.7,-26.704c-14.667,0 -24.7,10.958 -24.7,26.704c0,15.746 10.033,26.708 24.7,26.708m0,-66.383c22.538,0 39.208,16.367 39.208,39.675c0,23.312 -16.671,39.675 -39.208,39.675c-22.692,0 -39.367,-16.362 -39.367,-39.675c0,-23.308 16.675,-39.675 39.367,-39.675" style="fill:#101010;fill-rule:nonzero;"/><rect x="450.16" y="57.732" width="14.512" height="113.617" style="fill:#101010;"/><path d="M474.398,95.865l14.512,0l0,75.487l-14.512,0l0,-75.487Zm-2.471,-27.479c0,-5.404 4.325,-9.571 9.571,-9.571c5.25,0 9.571,4.167 9.571,9.571c0,5.25 -4.321,9.571 -9.571,9.571c-5.246,0 -9.571,-4.321 -9.571,-9.571" style="fill:#101010;fill-rule:nonzero;"/><path d="M505.12,171.352l0,-63.292l-14.821,0l0,-12.196l14.821,0l0,-23.621l14.513,0l0,23.621l14.817,0l0,12.196l-14.817,0l0,63.292l-14.513,0Z" style="fill:#101010;fill-rule:nonzero;"/><path d="M583.235,138.78l0,-4.012l-19.296,1.542c-12.812,1.238 -18.062,6.175 -18.062,13.583c0,8.029 5.867,12.042 15.283,12.042c13.742,0 22.075,-8.95 22.075,-23.154m-52.025,11.579c0,-13.896 10.346,-22.542 28.1,-23.929l23.771,-1.854l0,-2.158c0,-12.658 -7.562,-17.138 -17.75,-17.138c-12.196,0 -19.146,5.404 -19.146,14.513l-12.658,0c0,-15.746 12.967,-26.088 32.421,-26.088c18.679,0 31.337,9.879 31.337,30.254l0,47.392l-12.35,0l-1.546,-12.192c-3.858,8.642 -14.2,14.046 -26.396,14.046c-16.212,0 -25.783,-9.108 -25.783,-22.846" style="fill:#101010;fill-rule:nonzero;"/><path d="M605.777,95.865l14.512,0l0,75.487l-14.512,0l0,-75.487Zm-2.467,-27.479c0,-5.404 4.321,-9.571 9.571,-9.571c5.246,0 9.571,4.167 9.571,9.571c0,5.25 -4.325,9.571 -9.571,9.571c-5.25,0 -9.571,-4.321 -9.571,-9.571" style="fill:#101010;fill-rule:nonzero;"/><path d="M672.933,108.522l-6.483,0c-13.742,0 -22.229,8.337 -22.229,22.85l0,39.979l-14.513,0l0,-75.333l13.583,0l0.929,11.425c3.087,-7.875 10.65,-13.121 20.992,-13.121c2.625,0 4.788,0.308 7.721,0.925l0,13.275Z" style="fill:#101010;fill-rule:nonzero;"/><path d="M681.58,126.738l43.533,0c0,-12.504 -8.183,-20.842 -20.996,-20.842c-12.658,0 -20.683,7.567 -22.538,20.842m-14.358,6.946c0,-23.617 14.975,-39.979 36.896,-39.979c21.458,0 35.508,14.817 35.508,37.2l0,5.404l-58.354,0.154c1.079,15.9 9.417,24.7 23.771,24.7c11.271,0 18.679,-4.629 21.15,-13.275l13.588,0c-3.708,16.208 -16.367,25.317 -35.046,25.317c-22.229,0 -37.513,-16.054 -37.513,-39.521" style="fill:#101010;fill-rule:nonzero;"/><path d="M779.306,171.352l0,-109.604l7.408,0l41.992,100.65l41.833,-100.65l7.567,0l0,109.604l-7.412,0l0,-60.05c0,-17.908 0.312,-27.171 0.775,-34.425l-39.058,94.475l-7.408,0l-39.058,-94.013c0.308,3.088 0.771,15.9 0.771,33.963l0,60.05l-7.408,0Z" style="fill:#101010;fill-rule:nonzero;"/><path d="M941.405,136l0,-4.012l-24.854,2.008c-14.975,1.233 -21.304,8.488 -21.304,17.596c0,10.188 7.721,15.283 18.833,15.283c17.446,0 27.325,-12.658 27.325,-30.875m-53.258,15.746c0,-13.583 10.496,-22.229 27.788,-23.617l25.471,-2.008l0,-2.779c0,-16.671 -9.879,-21.458 -21.612,-21.458c-13.738,0 -21.921,6.483 -21.921,17.292l-7.104,0c0,-14.513 11.733,-23.775 29.179,-23.775c15.9,0 28.558,7.721 28.558,26.862l0,49.088l-5.712,0l-1.388,-13.892c-5.096,10.033 -15.438,15.746 -28.25,15.746c-15.9,0 -25.008,-8.8 -25.008,-21.458" style="fill:#101010;fill-rule:nonzero;"/><path d="M994.824,102.347l-5.558,0c-13.738,0 -22.692,10.033 -22.692,23.929l0,45.075l-7.1,0l0,-74.1l6.638,0l0.617,11.888c2.933,-8.338 11.112,-13.738 21.612,-13.738c2.312,0 4.013,0.154 6.483,0.771l0,6.175Z" style="fill:#101010;fill-rule:nonzero;"/><path d="M998.684,171.352l0,-111.458l7.1,0l0,78.887l40.292,-41.529l9.108,0l-28.713,29.642l29.021,44.458l-8.179,0l-25.629,-39.675l-15.9,16.521l0,23.154l-7.1,0Z" style="fill:#101010;fill-rule:nonzero;"/><path d="M1056.58,128.591l52.796,0c0,-16.054 -10.033,-26.708 -25.317,-26.708c-15.129,0 -25.783,10.5 -27.479,26.708m-7.254,5.867c0,-23.154 14.046,-39.058 34.733,-39.058c19.296,0 32.571,13.896 32.571,34.117l0,4.942l-60.204,0c0.617,20.221 11.117,32.263 28.558,32.263c13.121,0 21.458,-5.708 24.392,-16.671l7.254,0c-4.321,15.283 -14.975,23.154 -31.646,23.154c-21.458,0 -35.658,-15.438 -35.658,-38.746" style="fill:#101010;fill-rule:nonzero;"/><path d="M1128.52,171.352l0,-67.925l-14.975,0l0,-6.175l14.975,0l0,-23.463l7.104,0l0,23.463l14.971,0l0,6.175l-14.971,0l0,67.925l-7.104,0Z" style="fill:#101010;fill-rule:nonzero;"/><path d="M1154.15,151.283c0,9.571 7.1,15.438 18.525,15.438c12.504,0 20.221,-5.558 20.221,-14.667c0,-7.254 -3.55,-10.958 -13.121,-13.429l-12.504,-3.242c-12.658,-3.242 -18.679,-10.346 -18.679,-19.45c0,-12.35 10.192,-20.533 25.471,-20.533c15.283,0 24.854,8.183 25.321,21.613l-6.95,0c-0.462,-9.571 -7.254,-15.129 -18.371,-15.129c-11.883,0 -18.371,4.942 -18.371,14.05c0,6.329 4.325,10.804 13.279,13.121l12.35,3.242c12.967,3.396 18.679,9.417 18.679,19.758c0,12.658 -10.808,21.15 -27.017,21.15c-15.746,0 -25.779,-8.492 -25.779,-21.921l6.946,0Z" style="fill:#101010;fill-rule:nonzero;"/></g></svg>