<svg width="131" height="49" viewBox="0 0 131 49" fill="none" xmlns="http://www.w3.org/2000/svg">
<g clip-path="url(#clip0_29_2)">
<path d="M36.7363 24.8242C41.8406 31.2025 45.3123 42.8692 37.2143 42.9171C28.899 42.9685 17.6601 32.2984 17.312 31.965C26.142 39.7321 38.5786 45.0808 40.1552 38.7234C40.7731 36.2237 39.0213 31.7946 36.2849 28.2775C34.239 25.648 31.5923 23.5824 29.4213 22.9547C27.4819 22.3957 25.6676 23.1888 24.3424 24.514C19.8912 28.9677 2.65527 45.8924 0.252532 48.2498L0.144654 48.3564C0.118911 48.3819 0.096845 48.4039 0.0772306 48.4214C0.0674238 48.4312 0.0600685 48.4386 0.0514872 48.447L0.00980709 48.4886C0.00980709 48.4886 0.00735533 48.4924 0.00612944 48.4924L0 48.4959C0.50997 47.9382 8.74179 38.9391 12.444 34.9943C16.2651 30.9217 15.4143 28.215 11.8163 23.7233C6.71172 17.3451 3.24124 5.67831 11.3382 5.63048C19.6534 5.57901 30.8936 16.2516 31.2429 16.5838C22.4092 8.81536 9.97258 3.46558 8.39731 9.82303C7.77946 12.3226 9.53128 16.7517 12.2674 20.2688C14.3159 22.8983 16.9626 24.9639 19.1324 25.5916C21.0705 26.1506 22.8861 25.3574 24.21 24.0323C28.7372 19.5051 46.4735 2.0362 48.4015 0.139751L48.4837 0.0588426L48.5389 0.00367765L48.5452 0C48.0351 0.561457 39.8108 9.60848 36.1111 13.5534C32.2886 17.6258 33.1406 20.3325 36.7373 24.8242H36.7363Z" fill="black"/>
<path d="M130.511 20.9596V22.3313H124.01V12.0722H130.411V13.4439H125.581V16.3587H129.982V17.7304H125.581V20.9596H130.511Z" fill="black"/>
<path d="M116.163 22.3313H114.591V12.0722H118.42C120.778 12.0722 122.192 13.2296 122.192 15.2728C122.192 16.7445 121.263 17.8733 119.706 18.2448L122.492 22.3313H120.606L118.049 18.4734H116.163V22.3313ZM116.163 13.3868V17.1589H118.32C119.777 17.1589 120.606 16.5159 120.606 15.2728C120.606 14.044 119.777 13.3868 118.32 13.3868H116.163Z" fill="black"/>
<path d="M112.367 22.3313H110.795V12.0722H112.367V22.3313Z" fill="black"/>
<path d="M107.71 22.3313L106.781 19.788H102.352L101.409 22.3313H99.8228L103.752 12.0722H105.481L109.382 22.3313H107.71ZM104.581 13.7868L102.823 18.5163H106.31L104.581 13.7868Z" fill="black"/>
<path d="M96.8537 22.3313H95.282V13.4868H91.9385V12.0722H100.197V13.4868H96.8537V22.3313Z" fill="black"/>
<path d="M90.558 22.3313H88.9863V12.0722H90.558V22.3313Z" fill="black"/>
<path d="M87.4435 22.3313H81.228V12.0722H82.7997V20.9167H87.4435V22.3313Z" fill="black"/>
<path d="M74.3876 22.5456C71.4156 22.5456 69.1724 20.2166 69.1724 17.1875C69.1724 14.1583 71.4156 11.8579 74.3876 11.8579C77.3596 11.8579 79.6029 14.1583 79.6029 17.1875C79.6029 20.2166 77.3596 22.5456 74.3876 22.5456ZM74.3876 21.1311C76.5594 21.1311 77.974 19.3879 77.974 17.1875C77.974 14.9871 76.5594 13.2725 74.3876 13.2725C72.2158 13.2725 70.8012 14.9871 70.8012 17.1875C70.8012 19.3879 72.2158 21.1311 74.3876 21.1311Z" fill="black"/>
<path d="M68.2321 19.3307C68.2321 21.1168 66.8032 22.4742 64.3171 22.4742C61.8452 22.4742 60.3449 21.1168 60.2163 19.0735H61.8166C61.888 20.3738 62.7168 21.2168 64.2885 21.2168C65.5887 21.2168 66.5603 20.6024 66.5603 19.545C66.5603 18.6877 66.0031 18.2591 64.8172 18.0019L63.3312 17.7161C61.888 17.4304 60.5735 16.7017 60.5735 14.9585C60.5735 13.2296 62.0881 11.9294 64.2171 11.9294C66.346 11.9294 67.9606 13.2296 68.0892 15.2728H66.4889C66.4032 14.044 65.5173 13.1867 64.2313 13.1867C62.9025 13.1867 62.1738 13.9726 62.1738 14.8585C62.1738 15.8301 63.0168 16.173 63.9741 16.373L65.4887 16.6731C67.2462 17.0303 68.2321 17.8019 68.2321 19.3307Z" fill="black"/>
<path d="M126.776 33.9585C126.776 35.4731 125.533 36.8162 123.204 36.8162C120.89 36.8162 119.561 35.5017 119.475 33.6299H120.19C120.304 35.2016 121.275 36.2304 123.204 36.2304C124.79 36.2304 126.062 35.4017 126.062 34.03C126.062 32.8298 125.405 32.3154 123.747 31.9724L122.576 31.7295C121.29 31.4724 119.789 30.9151 119.789 29.1005C119.789 27.5288 121.175 26.2714 123.161 26.2714C125.062 26.2714 126.562 27.4859 126.662 29.4005H125.933C125.848 27.9288 124.762 26.8572 123.161 26.8572C121.433 26.8572 120.504 27.9431 120.504 29.0719C120.504 30.4579 121.661 30.858 122.933 31.1294L124.09 31.3723C125.791 31.7295 126.776 32.3868 126.776 33.9585Z" fill="black"/>
<path d="M115.221 36.6733H114.535V27.0287H111.021V26.4143H118.722V27.0287H115.221V36.6733Z" fill="black"/>
<path d="M109.826 36.0732V36.6733H103.925V26.4143H109.726V27.0144H104.625V31.0723H109.298V31.6724H104.625V36.0732H109.826Z" fill="black"/>
<path d="M96.1279 36.6733H95.4277V26.4143H96.1279V31.5009L101.343 26.4143H102.186L96.8709 31.601L102.329 36.6733H101.372L96.1279 31.8153V36.6733Z" fill="black"/>
<path d="M87.2534 36.6733H86.5532V26.4143H90.0824C92.1114 26.4143 93.4116 27.5145 93.4116 29.4434C93.4116 31.0437 92.3543 32.2011 90.6826 32.4011L93.6688 36.6733H92.8401L89.9253 32.4583H87.2534V36.6733ZM87.2534 27.0001V31.8724H89.9967C91.6542 31.8724 92.7115 31.0151 92.7115 29.4434C92.7115 27.8717 91.6542 27.0001 89.9967 27.0001H87.2534Z" fill="black"/>
<path d="M84.186 36.6733L83 33.6156H77.9562L76.7703 36.6733H76.0845L80.1281 26.4143H80.8854L84.9004 36.6733H84.186ZM80.4853 27.143L78.1849 33.0298H82.7714L80.4853 27.143Z" fill="black"/>
<path d="M69.0551 36.6733L64.9829 27.3287V36.6733H64.3257V26.4143H65.283L69.3838 35.816L73.4988 26.4143H74.4418V36.6733H73.7846V27.343L69.6981 36.6733H69.0551Z" fill="black"/>
</g>
<defs>
<clipPath id="clip0_29_2">
<rect width="130.771" height="48.6022" fill="white"/>
</clipPath>
</defs>
</svg>
